<?xml version="1.0" encoding="utf-8" ?>
<svg xmlns="http://www.w3.org/2000/svg" xmlns:xlink="http://www.w3.org/1999/xlink" width="71" height="71">
	<path transform="scale(0.110937 0.110937)" d="M338.73 154.801L338.107 155.862C337.238 155.443 336.282 153.538 335.713 152.712L330.132 145.068C317.256 128.84 299.104 117.356 280.878 107.998L254.438 94.3785C269.851 78.8044 313.328 73.4609 333.938 73.3789C334.399 73.206 335.447 73.3446 335.997 73.3452L342.348 73.3644C365.086 73.5012 403.248 77.9885 420.303 95.2497C417.664 97.0087 414.462 98.1714 411.555 99.4463L400.019 104.872C378.022 115.972 351.384 132.638 338.73 154.801Z"/>
	<path transform="scale(0.110937 0.110937)" d="M205.819 147.551C188.05 135.849 180.452 115.771 179.984 94.9579C179.926 92.3622 179.732 89.533 180.166 86.9788L180.243 86.5625C182.107 75.8954 194.424 84.1754 199.517 86.7188L218.692 95.9034C251.329 110.909 293.605 125.488 317.256 153.69L329.898 170.972C334.614 178.052 339.406 180.291 345.07 171.676C362.995 144.416 383.456 130.186 412.415 115.802L473.812 86.4151C477.407 84.6039 480.898 82.354 484.75 81.1401L485.219 80.995C492.479 80.7009 492.575 86.9071 492.535 92.696C492.361 117.97 481.129 147.616 453.462 153.482C449.414 154.34 444.176 153.741 440.004 153.74L413.344 153.734C408.539 153.735 403.516 153.407 398.75 153.942C378.43 156.226 360.682 168.727 351.871 187.302C345.06 201.662 346.493 216.477 351.668 231.078C346.243 236.948 341.116 244.591 337.533 251.787L337.36 252.142C334.183 247.451 331.467 242.385 328.133 237.818L324.656 233.413C322.417 230.669 326.759 222.58 327.547 218.333C333.132 188.239 310.596 159.112 280.602 154.278C274.928 153.363 268.727 153.745 262.986 153.746L235.413 153.766C222.571 153.78 217.094 154.431 205.819 147.551Z"/>
	<path transform="scale(0.110937 0.110937)" d="M477.472 519.344L472.744 527.025C470.106 530.94 456.197 548.8 451.315 549.541L450.938 549.584C447.628 549.989 444.136 549.786 440.803 549.788L425.641 549.531C426.598 547.627 426.758 545.377 426.816 543.276L426.816 374.726C426.807 367.786 427.493 359.97 426.332 353.153C424.766 351.422 422.336 348.932 419.895 348.579C417.207 348.191 386.519 366.098 381.322 368.963L277.714 426.507C269.706 431.086 271.014 427.927 261.668 422.553L133.53 347.778C131.853 346.868 131.273 345.991 129.267 345.48L128.899 345.39C134.882 345.233 177.258 345.928 179.375 344.815C184.068 342.346 182.851 338.367 182.849 333.862L182.828 235.717C182.827 209.741 186.329 188.149 209.609 171.864C214.005 168.789 218.917 166.322 223.589 163.683C228.209 165.743 233.397 166.359 238.138 168.203L233.522 172.584C222.786 184.16 219.618 198.097 220.287 213.281C222.245 257.683 281.612 280.716 314.388 243.969C317.584 248.727 320.472 253.915 323.098 259.009L328.719 270.805C337.91 290.638 341.253 279.568 347.055 267.746C351.088 259.529 355.098 251.654 360.475 244.221L366.875 250.32C378.311 259.723 394.267 263.793 408.867 262.265C453.559 257.586 472.789 196.238 436.92 167.56C441.842 166.382 446.986 166.238 451.531 163.817L458.317 166.734C477.366 177.204 491.558 197.471 492.658 219.51L492.807 461.257C492.796 484.169 488.825 498.724 477.472 519.344Z"/>
	<path transform="scale(0.110937 0.110937)" d="M403.677 247.196C383.194 247.663 365.877 234.873 363.026 213.75L362.876 212.607C360.524 189.503 378.553 171.818 400.677 169.5L400.911 169.46C445.859 165.22 460.034 240.492 403.677 247.196Z"/>
	<path transform="scale(0.110937 0.110937)" d="M279.573 246.524C259.871 249.6 239.268 235.897 235.927 215.86C232.236 193.722 246.224 173.269 268.661 169.79C320.374 166.22 329.853 238.31 279.573 246.524Z"/>
	<path transform="scale(0.110937 0.110937)" d="M404.86 530.869L279.535 455.456C264.786 446.656 263.519 451.672 248.421 460.876L135.459 528.216C130.984 530.93 126.661 533.806 121.967 536.139L121.663 357.274L252.386 434.908C262.764 440.844 268.649 447.42 280.88 441.426L405.828 372.033C407.589 370.941 409.625 370.412 411.079 368.956L411.76 535.003C409.51 534.372 406.864 532.152 404.86 530.869Z"/>
	<path transform="scale(0.110937 0.110937)" d="M268.906 549.81L149.23 549.802C142.391 549.802 135.511 550.007 128.702 549.256L268.867 466.176L397.812 543.456C399.333 544.271 407.62 549.332 408.271 549.503L268.906 549.81Z"/>
</svg>
